<svg xmlns="http://www.w3.org/2000/svg" viewBox="0 0 22.027 22.028">
  <defs>
    <style>
      .cls-1 {
        fill: #0077b7;
      }
    </style>
  </defs>
  <path id="linkedin_1_" data-name="linkedin (1)" class="cls-1" d="M20.035,0H1.993A1.993,1.993,0,0,0,0,1.993V20.035a1.993,1.993,0,0,0,1.993,1.993H20.035a1.993,1.993,0,0,0,1.993-1.993V1.993A1.993,1.993,0,0,0,20.035,0ZM6.816,19.02a.58.58,0,0,1-.58.58H3.768a.58.58,0,0,1-.58-.58V8.673a.58.58,0,0,1,.58-.58H6.236a.58.58,0,0,1,.58.58ZM5,7.118A2.345,2.345,0,1,1,7.347,4.773,2.345,2.345,0,0,1,5,7.118ZM19.716,19.067a.533.533,0,0,1-.533.533H16.534A.533.533,0,0,1,16,19.067V14.214c0-.724.212-3.173-1.892-3.173-1.632,0-1.964,1.676-2.03,2.428v5.6a.533.533,0,0,1-.533.533H8.984a.533.533,0,0,1-.533-.533V8.626a.533.533,0,0,1,.533-.533h2.562a.533.533,0,0,1,.533.533v.9a3.636,3.636,0,0,1,3.42-1.61c4.241,0,4.217,3.962,4.217,6.14v5.008Z"/>
</svg>
